{"title":"Strandridaren.2013.720p.BRRip.x264-Fastbet99","uid":9296680,"size":1186976920,"categoryP":"video","categoryS":"hd___movies","magnet":"?xt=urn:btih:b13277ffa4936eaefa28854b751eb93aecc3a1cc&amp;dn=Strandridaren.2013.720p.BRRip.x264-Fastbet99&amp;tr=udp%3A%2F%2Ftracker.openbittorrent.com%3A80&amp;tr=udp%3A%2F%2Fopen.demonii.com%3A1337&amp;tr=udp%3A%2F%2Ftracker.coppersurfer.tk%3A6969&amp;tr=udp%3A%2F%2Fexodus.desync.com%3A6969","seeders":1,"leechers":1,"uploader":"Fastbet99","files":-1,"time":1386170294,"description":"Stranndridaren (2013)\n\nIMDB Info\t\t\t\t : http://www.imdb.com/title/tt2188743\n\nSource\t\t\t\t\t : iMSORNY (Thanks)\nComplete name                            : Strandridaren.2013.720p.BRRip.x264-Fastbet99.mp4\nFormat                                   : MPEG-4\nFormat profile                           : Base Media\nCodec ID                                 : isom\nFile size                                : 1.11 GiB\nDuration                                 : 1h 28mn\nOverall bit rate mode                    : Variable\nOverall bit rate                         : 1 790 Kbps\n\nVideo\nID                                       : 1\nFormat                                   : AVC\nFormat/Info                              : Advanced Video Codec\nFormat profile                           : &lt;a class=&quot;__cf_email__&quot; href=&quot;/cdn-cgi/l/email-protection&quot; data-cfemail=&quot;034b6a646b434f372d32&quot;&gt;[email&amp;#160;protected]&lt;/a&gt;&lt;script cf-hash='f9e31' type=&quot;text/javascript&quot;&gt;\n/* &lt;![CDATA[ */!function(){try{var t=&quot;currentScript&quot;in document?document.currentScript:function(){for(var t=document.getElementsByTagName(&quot;script&quot;),e=t.length;e--;)if(t[e].getAttribute(&quot;cf-hash&quot;))return t[e]}();if(t&amp;&amp;t.previousSibling){var e,r,n,i,c=t.previousSibling,a=c.getAttribute(&quot;data-cfemail&quot;);if(a){for(e=&quot;&quot;,r=parseInt(a.substr(0,2),16),n=2;a.length-n;n+=2)i=parseInt(a.substr(n,2),16)^r,e+=String.fromCharCode(i);e=document.createTextNode(e),c.parentNode.replaceChild(e,c)}}}catch(u){}}();/* ]]&gt; */&lt;/script&gt;\nFormat settings, CABAC                   : Yes\nFormat settings, ReFrames                : 4 frames\nCodec ID                                 : avc1\nCodec ID/Info                            : Advanced Video Coding\nDuration                                 : 1h 28mn\nBit rate                                 : 1 671 Kbps\nMaximum bit rate                         : 14.8 Mbps\nWidth                                    : 1 280 pixels\nHeight                                   : 720 pixels\nDisplay aspect ratio                     : 16:9\nFrame rate mode                          : Constant\nFrame rate                               : 25.000 fps\nColor space                              : YUV\nChroma subsampling                       : 4:2:0\nBit depth                                : 8 bits\nScan type                                : Progressive\nBits/(Pixel*Frame)                       : 0.073\nStream size                              : 1.03 GiB (93%)\nWriting library                          : x264 core 133 r2334 a3ac64b\n\nAudio\nID                                       : 2\nFormat                                   : AAC\nFormat/Info                              : Advanced Audio Codec\nFormat profile                           : LC\nCodec ID                                 : 40\nDuration                                 : 1h 28mn\nBit rate mode                            : Variable\nBit rate                                 : 96.0 Kbps\nMaximum bit rate                         : 158 Kbps\nChannel(s)                               : 2 channels\nChannel positions                        : Front: L R\nSampling rate                            : 48.0 KHz\nCompression mode                         : Lossy\nStream size                              : 60.7 MiB (5%)\nLanguage                                 : Swedish\n\nText #1\nID                                       : 3\nFormat                                   : mp4s\nCodec ID                                 : E0\nDuration                                 : 1h 28mn\nBit rate mode                            : Variable\nBit rate                                 : 3 120 bps\nMaximum bit rate                         : 46.7 Kbps\nStream size                              : 1.97 MiB (0%)\nLanguage                                 : English\n\nText #2\nID                                       : 4\nFormat                                   : mp4s\nCodec ID                                 : E0\nDuration                                 : 1h 28mn\nBit rate mode                            : Variable\nBit rate                                 : 3 256 bps\nMaximum bit rate                         : 46.2 Kbps\nStream size                              : 2.06 MiB (0%)\nLanguage                                 : Swedish\n\nText #3\nID                                       : 5\nFormat                                   : mp4s\nCodec ID                                 : E0\nDuration                                 : 1h 28mn\nBit rate mode                            : Variable\nBit rate                                 : 3 240 bps\nMaximum bit rate                         : 43.9 Kbps\nStream size                              : 2.05 MiB (0%)\nLanguage                                 : Danish\n\nText #4\nID                                       : 6\nFormat                                   : mp4s\nCodec ID                                 : E0\nDuration                                 : 1h 28mn\nBit rate mode                            : Variable\nBit rate                                 : 3 096 bps\nMaximum bit rate                         : 40.1 Kbps\nStream size                              : 1.96 MiB (0%)\nLanguage                                 : Finnish\n\nText #5\nID                                       : 7\nFormat                                   : mp4s\nCodec ID                                 : E0\nDuration                                 : 1h 28mn\nBit rate mode                            : Variable\nBit rate                                 : 3 120 bps\nMaximum bit rate                         : 43.6 Kbps\nStream size                              : 1.98 MiB (0%)\nLanguage                                 : Norwegian\n\nText #6\nID                                       : 8\nFormat                                   : mp4s\nCodec ID                                 : E0\nDuration                                 : 1h 28mn\nBit rate mode                            : Variable\nBit rate                                 : 3 120 bps\nMaximum bit rate                         : 46.7 Kbps\nStream size                              : 1.97 MiB (0%)\nLanguage                                 : English\nEncoder\t\t\t\t\t : Fastbet99\n\nScreenshots\n &lt;a href=&quot;\nhttp://lookpic.com/O/i2/1956/aJgpxlM.jpeg&quot; rel=&quot;nofollow&quot; target=&quot;_NEW&quot;&gt;\nhttp://lookpic.com/O/i2/1956/aJgpxlM.jpeg&lt;/a&gt;\n\nStairway To heaven - Help People With Keep Seed As Long You Can","torrent":{"xt":"urn:btih:b13277ffa4936eaefa28854b751eb93aecc3a1cc","amp;dn":"Strandridaren.2013.720p.BRRip.x264-Fastbet99","amp;tr":["udp%3A%2F%2Ftracker.openbittorrent.com%3A80","udp%3A%2F%2Fopen.demonii.com%3A1337","udp%3A%2F%2Ftracker.coppersurfer.tk%3A6969","udp%3A%2F%2Fexodus.desync.com%3A6969"],"infoHash":"b13277ffa4936eaefa28854b751eb93aecc3a1cc","infoHashBuffer":{"type":"Buffer","data":[177,50,119,255,164,147,110,174,250,40,133,75,117,30,185,58,236,195,161,204]},"announce":[],"urlList":[]}}